<?xml version="1.0" encoding="UTF-8"?>
<svg id="Capa_2" data-name="Capa 2" xmlns="http://www.w3.org/2000/svg" width="864" height="225.04" viewBox="0 0 864 225.04">
  <g id="Capa_1-2" data-name="Capa 1">
    <g>
      <path d="M173.51,113.42c0,64.81-6.6,111.62-6.6,111.62h-62.41c4.2-11.4,7.5-28.5,10.2-48.31-5.1-1.5-12.6-3-23.7-3-16.8,0-25.8,3.3-29.11,4.8-3,14.1-4.2,29.41-2.4,46.51H.08C-2.92,123.92,76.9,84.02,67.29,0h97.82s8.4,48.61,8.4,113.42Zm-82.51,18.3c11.4,0,23.1,2.1,28.51,3.6,0,0,5-61.87-4.5-104.5-3.9,39.01-24.6,70.29-39.31,101.2,3.6-.3,10.5-.3,15.3-.3Z" style="fill: #fff;"/>
      <path d="M698.89,0h97.82c-9.6,84.02,70.21,123.92,67.21,225.04h-59.41c1.8-17.1,.6-32.41-2.4-46.51-3.3-1.5-12.3-4.8-29.11-4.8-11.1,0-18.6,1.5-23.7,3,2.7,19.8,6,36.91,10.2,48.31h-62.41s-6.6-46.81-6.6-111.62c0-64.81,8.4-113.42,8.4-113.42Zm89.42,132.02c-14.7-30.91-35.41-62.19-39.31-101.2-9.5,42.63-4.5,104.5-4.5,104.5,5.4-1.5,17.1-3.6,28.51-3.6,4.8,0,11.7,0,15.3,.3Z" style="fill: #fff;"/>
      <path d="M362.84,56.11c0,23.1-12.9,42.01-37.81,52.21,36.91,7.2,56.11,24.6,56.11,51.61,0,42.91-31.21,65.11-87.02,65.11h-85.52C216.12,156.03,216.12,69.01,208.61,0h82.51C338.24,0,362.84,21.3,362.84,56.11Zm-54.01,8.1c0-20.7-14.4-29.41-42.31-25.8v51.31h6.6c23.4,0,35.71-8.7,35.71-25.5Zm17.7,91.22c0-16.5-15.9-25.2-46.51-25.2h-13.5v55.21c39.31,3.6,60.01-6.6,60.01-30.01Z" style="fill: #fff;"/>
      <path d="M434.85,123.92S385.64,88.52,385.64,0h57.91c-9.3,47.71,14.4,75.91,23.7,84.62,2.1,2.1,3.6,3.3,3.6,3.3h-7.5l3.9-3.3C477.46,75.91,503.86,47.71,496.96,0h57.91c0,97.82-98.72,129.32-90.62,225.04h-60.61c0-57.01,31.21-101.12,31.21-101.12Z" style="fill: #fff;"/>
      <path d="M658.39,166.53c.6,33.31,5.1,58.51,5.1,58.51h-156.63C506.86,121.22,605.58,105.02,598.37,0h60.01c0,101.12-76.81,141.63-82.81,180.93,57.31,2.1,82.81-14.4,82.81-14.4Z" style="fill: #fff;"/>
    </g>
  </g>
</svg>